<svg width="258" height="161" viewBox="0 0 258 161" fill="none" xmlns="http://www.w3.org/2000/svg">
<path d="M82.4258 66.2617C80.4336 67.1602 78.3828 67.9023 76.2734 68.4883C74.2031 69.0352 72.1133 69.5625 70.0039 70.0703C69.9258 70.0703 69.7109 70.1094 69.3594 70.1875C69.0469 70.2656 68.7148 70.3633 68.3633 70.4805C68.0117 70.5586 67.6797 70.6367 67.3672 70.7148C67.0938 70.7539 66.957 70.7734 66.957 70.7734C66.4883 70.6172 66.0195 70.6172 65.5508 70.7734C65.1211 70.8906 64.6719 71.0469 64.2031 71.2422C63.7734 71.4375 63.3047 71.5938 62.7969 71.7109C62.2891 71.7891 61.7227 71.6914 61.0977 71.418C60.9805 71.3789 60.7656 71.418 60.4531 71.5352C60.1406 71.6133 59.8281 71.7305 59.5156 71.8867C59.2031 72.043 58.9297 72.2383 58.6953 72.4727C58.4609 72.668 58.3242 72.8438 58.2852 73L58.6367 73.3516C58.6758 73.4688 58.6172 73.7031 58.4609 74.0547C58.3047 74.3672 58.1289 74.7188 57.9336 75.1094C57.7383 75.4609 57.5234 75.793 57.2891 76.1055C57.0938 76.418 56.9375 76.6133 56.8203 76.6914C56.8594 77.043 56.7617 77.4727 56.5273 77.9805C56.332 78.4492 56.0977 78.957 55.8242 79.5039C55.5898 80.0508 55.3555 80.6172 55.1211 81.2031C54.9258 81.7891 54.8281 82.3359 54.8281 82.8438C54.8281 83 54.8477 83.1562 54.8867 83.3125C54.9258 83.4688 54.9258 83.6055 54.8867 83.7227L54.8281 83.8398C54.4375 84.1523 54.1445 84.5625 53.9492 85.0703C53.793 85.5391 53.6562 86.0469 53.5391 86.5938C53.4609 87.1016 53.3438 87.6094 53.1875 88.1172C53.0703 88.625 52.8555 89.0742 52.543 89.4648V89.5234L52.4844 89.582C51.9766 89.8164 51.5469 89.8555 51.1953 89.6992C50.8828 89.543 50.5898 89.3086 50.3164 88.9961C50.082 88.6836 49.8477 88.332 49.6133 87.9414C49.418 87.5117 49.1836 87.1406 48.9102 86.8281C48.7539 86.3203 48.6953 85.8906 48.7344 85.5391C48.7734 85.1484 48.9492 84.7578 49.2617 84.3672L49.3789 84.3086C49.1445 83.9961 49.0664 83.7227 49.1445 83.4883C49.2617 83.2148 49.3789 82.9609 49.4961 82.7266C49.6523 82.4922 49.75 82.2578 49.7891 82.0234C49.8672 81.75 49.75 81.4375 49.4375 81.0859L49.5547 80.9688C50.0625 80.4609 50.3359 79.8945 50.375 79.2695C50.4141 78.6055 50.375 77.9414 50.2578 77.2773C50.1797 76.6133 50.1211 75.9492 50.082 75.2852C50.082 74.6211 50.2773 74.0156 50.668 73.4688L50.7266 73.4102C50.7656 73.1758 50.6094 72.8633 50.2578 72.4727C49.9062 72.082 49.6328 71.7891 49.4375 71.5938C49.2031 72.1797 48.8906 72.4922 48.5 72.5312C48.1484 72.5312 47.7383 72.4727 47.2695 72.3555C46.8398 72.2383 46.4102 72.1406 45.9805 72.0625C45.5508 71.9844 45.1602 72.1211 44.8086 72.4727L44.5156 72.707L44.3984 72.4727C44.2422 72.1211 44.0273 71.9453 43.7539 71.9453C43.5195 71.9062 43.2461 71.9062 42.9336 71.9453C42.4648 71.9844 42.0156 72.0234 41.5859 72.0625C41.1953 72.0625 40.7852 72.0625 40.3555 72.0625C40.1211 71.8672 39.8477 71.7891 39.5352 71.8281C39.2617 71.8672 38.9688 71.9062 38.6562 71.9453C38.3828 71.9844 38.0898 72.0039 37.7773 72.0039C37.5039 71.9648 37.2305 71.7891 36.957 71.4766C36.6836 71.5938 36.2539 72.0625 35.668 72.8828C35.082 73.6641 34.457 74.543 33.793 75.5195C33.168 76.4961 32.5625 77.4531 31.9766 78.3906C31.4297 79.2891 31.0586 79.9141 30.8633 80.2656C30.707 80.5 30.5117 80.793 30.2773 81.1445C30.082 81.4961 29.8672 81.8672 29.6328 82.2578C29.3984 82.6094 29.1836 82.9609 28.9883 83.3125C28.793 83.625 28.6367 83.8984 28.5195 84.1328L28.5781 84.3086C28.5781 84.6992 28.5195 85.0117 28.4023 85.2461C28.2852 85.4414 28.1289 85.6172 27.9336 85.7734C27.7773 85.8906 27.6211 86.0078 27.4648 86.125C27.3086 86.2031 27.1719 86.3008 27.0547 86.418C26.7422 86.418 26.5078 86.4961 26.3516 86.6523C26.1953 86.8086 26.0586 86.9844 25.9414 87.1797C25.8242 87.375 25.6875 87.5508 25.5312 87.707C25.3359 87.8633 25.043 87.9414 24.6523 87.9414C24.4961 88.1367 24.3984 88.2734 24.3594 88.3516C24.3203 88.4297 24.2617 88.5859 24.1836 88.8203C24.1055 89.0938 24.0469 89.2891 24.0078 89.4062C23.9297 89.5234 23.8711 89.6016 23.832 89.6406C23.7539 89.7188 23.6758 89.7773 23.5977 89.8164C23.5195 89.8945 23.4414 89.9922 23.3633 90.1094C23.1289 90.1484 22.9531 90.1094 22.8359 89.9922C22.7188 89.875 22.6016 89.7188 22.4844 89.5234C22.3672 89.3672 22.2695 89.1914 22.1914 88.9961C22.0742 88.8398 21.9375 88.7227 21.7812 88.6445L21.8398 88.4688C22.6211 86.1641 23.5586 83.9766 24.6523 81.9062C25.7461 79.7969 26.918 77.707 28.168 75.6367C28.2461 75.4805 28.3047 75.3242 28.3438 75.168C28.3828 75.0117 28.4414 74.8555 28.5195 74.6992C28.7148 74.1914 28.9102 73.7031 29.1055 73.2344C29.3398 72.7656 29.6133 72.3164 29.9258 71.8867C30.1992 71.457 30.4336 71.0469 30.6289 70.6562C30.8633 70.2656 31.0781 69.8555 31.2734 69.4258L31.1562 69.3086C29.9062 68.293 28.8125 67.2578 27.875 66.2031C26.9766 65.1094 26.1172 63.8789 25.2969 62.5117C25.1016 62.1602 24.9062 61.8086 24.7109 61.457C24.5156 61.0664 24.3203 60.7148 24.125 60.4023L24.0664 60.3438C24.0664 59.5625 24.125 58.7812 24.2422 58C24.3594 57.2188 24.7109 56.5352 25.2969 55.9492L25.3555 55.8906V55.832C25.5508 55.4414 25.7656 55.1484 26 54.9531C26.2344 54.7578 26.4688 54.6016 26.7031 54.4844C26.9766 54.3672 27.25 54.2695 27.5234 54.1914C27.7969 54.0742 28.0703 53.8984 28.3438 53.6641V53.6055C29.2422 53.2148 30.1211 52.8828 30.9805 52.6094C31.8398 52.3359 32.7578 52.4531 33.7344 52.9609L33.8516 52.9023C34.2031 52.707 34.6328 52.6094 35.1406 52.6094C35.6484 52.5703 36.0977 52.5508 36.4883 52.5508C36.7227 52.668 36.957 52.8242 37.1914 53.0195C37.4648 53.1758 37.7188 53.332 37.9531 53.4883C38.2266 53.6445 38.5 53.7617 38.7734 53.8398C39.0469 53.918 39.3008 53.8984 39.5352 53.7812H39.5938V53.7227C39.9844 53.332 40.2969 52.7852 40.5312 52.082C40.7656 51.3398 41 50.5586 41.2344 49.7383C41.5078 48.918 41.8008 48.1172 42.1133 47.3359C42.4258 46.5156 42.8555 45.8125 43.4023 45.2266C43.4023 45.1094 43.4805 44.8555 43.6367 44.4648C43.793 44.0352 43.9492 43.5664 44.1055 43.0586C44.3008 42.5117 44.4375 41.9844 44.5156 41.4766C44.6328 40.9297 44.6328 40.4805 44.5156 40.1289L45.043 40.1875C45.1992 40.0312 45.2969 39.8945 45.3359 39.7773L45.2773 39.6016C45.1211 39.4453 45.0625 39.25 45.1016 39.0156C45.1406 38.7812 45.1992 38.5664 45.2773 38.3711H45.2188L45.1602 38.1367C45.2773 38.0977 45.4922 38.0195 45.8047 37.9023C46.1562 37.7852 46.5078 37.6484 46.8594 37.4922C47.2109 37.3359 47.5234 37.1992 47.7969 37.082C48.1094 36.9648 48.2852 36.9062 48.3242 36.9062C48.8711 37.2188 49.1641 37.5703 49.2031 37.9609C49.2812 38.3516 49.2617 38.8203 49.1445 39.3672C49.1055 39.6406 49.0859 39.875 49.0859 40.0703C49.125 40.2266 49.1445 40.4219 49.1445 40.6562C49.1445 41.0469 49.0469 41.5352 48.8516 42.1211C48.6562 42.668 48.4219 43.2539 48.1484 43.8789C47.9141 44.5039 47.6406 45.0898 47.3281 45.6367C47.0156 46.1836 46.7422 46.6328 46.5078 46.9844V47.3359C46.5078 48.1562 46.3906 49.0156 46.1562 49.9141C45.9219 50.7734 45.6289 51.6328 45.2773 52.4922C44.9258 53.3516 44.5352 54.1914 44.1055 55.0117C43.7148 55.832 43.3242 56.6133 42.9336 57.3555C42.6602 57.8242 42.3672 58.3711 42.0547 58.9961C41.7422 59.582 41.4297 60.1875 41.1172 60.8125C40.8438 61.4375 40.5898 62.082 40.3555 62.7461C40.1602 63.3711 40.0234 63.9375 39.9453 64.4453V64.5039L38.4805 67.2578C38.6367 67.4531 38.8711 67.6289 39.1836 67.7852C39.5352 67.9023 39.8867 68.0195 40.2383 68.1367C40.6289 68.2539 41 68.3516 41.3516 68.4297C41.7422 68.4688 42.0742 68.4883 42.3477 68.4883C42.7773 68.4883 43.1289 68.5273 43.4023 68.6055C43.7148 68.6445 44.0273 68.8398 44.3398 69.1914L44.457 69.3086H44.5742C44.8867 69.2305 45.1602 69.1914 45.3945 69.1914C45.6289 69.1914 45.9023 69.1914 46.2148 69.1914C46.5273 69.2695 46.8203 69.2891 47.0938 69.25C47.4062 69.2109 47.7188 69.1719 48.0312 69.1328L47.9727 69.543C48.168 69.7383 48.3242 69.875 48.4414 69.9531C48.6367 69.6406 48.8711 69.3281 49.1445 69.0156C49.3008 69.25 49.4375 69.4258 49.5547 69.543C49.6719 69.4648 49.8086 69.3086 49.9648 69.0742C50.1602 68.8398 50.2969 68.7227 50.375 68.7227L50.4336 68.6641L50.4922 68.7227C51.1953 68.957 51.8398 69.0352 52.4258 68.957C53.0117 68.8789 53.6562 68.8398 54.3594 68.8398C54.4766 68.5664 54.6328 68.3516 54.8281 68.1953C55.0625 68.0391 55.2578 67.8828 55.4141 67.7266C55.6094 67.5312 55.7266 67.3359 55.7656 67.1406C55.8047 66.9453 55.707 66.6719 55.4727 66.3203L55.4141 66.2031C55.4141 66.2031 55.4727 66.0859 55.5898 65.8516C55.7461 65.6172 55.9023 65.3633 56.0586 65.0898C56.2148 64.7773 56.3516 64.5039 56.4688 64.2695C56.625 64.0352 56.7227 63.8789 56.7617 63.8008C57.543 62.5117 58.2266 61.2031 58.8125 59.875C59.3984 58.5078 59.6914 57.0625 59.6914 55.5391V55.1289C59.7695 55.0898 59.8477 55.0703 59.9258 55.0703C60.5117 54.8359 60.8242 54.5234 60.8633 54.1328C60.9023 53.7031 60.8828 53.2539 60.8047 52.7852C60.7266 52.3164 60.7266 51.8477 60.8047 51.3789C60.9219 50.9102 61.332 50.5 62.0352 50.1484L62.1523 50.0898L62.2109 49.9727C62.4453 49.3867 62.6406 48.8008 62.7969 48.2148C62.9922 47.5898 63.207 46.9844 63.4414 46.3984C64.1836 44.6406 64.7305 42.7461 65.082 40.7148C65.1602 40.2461 65.3359 39.8359 65.6094 39.4844C65.9219 39.0938 66.2344 38.7227 66.5469 38.3711C66.8594 37.9805 67.1328 37.5898 67.3672 37.1992C67.6406 36.7695 67.7773 36.3008 67.7773 35.793C67.7773 35.4805 67.7383 35.2656 67.6602 35.1484V34.9727L67.7773 34.9141C68.5586 34.5234 69.1641 34.0352 69.5938 33.4492C70.0234 32.8633 70.2383 32.1211 70.2383 31.2227C70.2383 31.1055 70.2188 30.8906 70.1797 30.5781C70.1797 30.2656 70.1406 30.0703 70.0625 29.9922C70.4141 29.7578 70.7852 29.4453 71.1758 29.0547L71.293 29.1133C72.0352 29.6602 72.4844 30.2266 72.6406 30.8125C72.8359 31.3594 72.875 31.9258 72.7578 32.5117C72.6797 33.0977 72.543 33.7031 72.3477 34.3281C72.1523 34.9531 72.0547 35.5977 72.0547 36.2617L71.9961 36.3203C71.4102 37.3359 70.9414 38.4883 70.5898 39.7773C70.2383 41.0664 70.0625 42.3164 70.0625 43.5273C69.6328 43.5273 69.3594 43.625 69.2422 43.8203C69.1641 44.0156 69.0859 44.2695 69.0078 44.582C68.9688 44.8555 68.8906 45.1484 68.7734 45.4609C68.6953 45.7734 68.4609 46.0469 68.0703 46.2812L68.1875 46.457C68.1875 46.5352 68.1875 46.5938 68.1875 46.6328C68.2266 46.6719 68.2461 46.7305 68.2461 46.8086C68.2461 47.043 68.1875 47.2578 68.0703 47.4531C67.9531 47.6094 67.8359 47.7852 67.7188 47.9805C67.6016 48.1367 67.5234 48.3125 67.4844 48.5078C67.4844 48.7031 67.582 48.918 67.7773 49.1523C67.9336 49.3867 68.0312 49.5234 68.0703 49.5625H67.4258C66.8008 50.7734 66.2344 52.0039 65.7266 53.2539C65.2188 54.5039 64.75 55.7734 64.3203 57.0625C63.9688 58.1562 63.5977 59.2305 63.207 60.2852C62.8164 61.3398 62.3477 62.375 61.8008 63.3906V63.5664C62.1523 64.2305 62.1719 64.7578 61.8594 65.1484C61.5859 65.5391 61.2734 65.8906 60.9219 66.2031C60.6094 66.4766 60.3945 66.75 60.2773 67.0234C60.1602 67.2969 60.4336 67.6484 61.0977 68.0781C61.6055 67.5703 62.0742 67.3945 62.5039 67.5508C62.9336 67.707 63.4609 67.8633 64.0859 68.0195C64.2031 67.9023 64.3008 67.8047 64.3789 67.7266C64.4961 67.6094 64.6719 67.5898 64.9062 67.668C64.9453 67.707 64.9844 67.7461 65.0234 67.7852C65.0625 67.7852 65.1016 67.8047 65.1406 67.8438C65.375 67.4922 65.5898 67.2969 65.7852 67.2578C65.9805 67.2188 66.1758 67.2383 66.3711 67.3164C66.5664 67.3945 66.7617 67.4727 66.957 67.5508C67.1523 67.6289 67.3477 67.6094 67.543 67.4922C67.6602 67.4141 67.7383 67.2969 67.7773 67.1406C67.8164 66.9453 67.875 66.7695 67.9531 66.6133C68.5391 67.1992 69.0273 67.4922 69.418 67.4922C69.8477 67.4531 70.2383 67.3359 70.5898 67.1406C70.9805 66.9062 71.3516 66.6914 71.7031 66.4961C72.0938 66.3008 72.543 66.3203 73.0508 66.5547C73.4805 66.5547 73.9102 66.5156 74.3398 66.4375C74.8086 66.3203 75.2578 66.2227 75.6875 66.1445C76.8203 65.9492 77.9336 65.793 79.0273 65.6758C80.1211 65.5586 81.2344 65.5977 82.3672 65.793L82.4258 66.2617ZM37.3672 55.0117C37.0156 55.0117 36.6836 55.0312 36.3711 55.0703C36.0977 55.1094 35.8438 55.2461 35.6094 55.4805C35.5703 55.4414 35.5312 55.4219 35.4922 55.4219C33.9688 54.9922 32.5039 55.0703 31.0977 55.6562C29.6914 56.2422 28.4805 57.082 27.4648 58.1758L27.3477 58.6445C27.3086 58.7617 27.2891 58.8984 27.2891 59.0547C27.2891 59.1719 27.2891 59.2695 27.2891 59.3477C27.2891 60.0898 27.4648 60.7734 27.8164 61.3984C28.0508 61.8672 28.3242 62.2578 28.6367 62.5703C28.9883 62.8828 29.3594 63.1758 29.75 63.4492C30.1797 63.7227 30.5898 63.9961 30.9805 64.2695C31.4102 64.543 31.8008 64.875 32.1523 65.2656C32.9336 65.2656 33.4609 65.0703 33.7344 64.6797C34.0469 64.25 34.2617 63.7617 34.3789 63.2148C34.5352 62.6289 34.6914 62.043 34.8477 61.457C35.0039 60.8711 35.3359 60.4023 35.8438 60.0508C35.8828 60.0508 35.9023 60.0508 35.9023 60.0508C35.9023 60.0117 35.9219 59.9922 35.9609 59.9922C35.8047 59.6016 35.8047 59.2109 35.9609 58.8203C36.1562 58.4297 36.3711 58.0391 36.6055 57.6484C36.8789 57.2578 37.0938 56.8477 37.25 56.418C37.4453 55.9883 37.4844 55.5195 37.3672 55.0117ZM108.09 64.9727C107.777 65.7539 107.426 66.3984 107.035 66.9062C106.684 67.4141 106.273 67.9219 105.805 68.4297C105.336 68.8984 104.809 69.4453 104.223 70.0703C103.637 70.6562 102.992 71.4375 102.289 72.4141L102.172 72.4727C101.82 73.1758 101.371 73.8594 100.824 74.5234C100.434 75.0312 100.199 75.4023 100.121 75.6367C100.043 75.832 99.9648 76.0273 99.8867 76.2227C99.8477 76.3789 99.7305 76.5547 99.5352 76.75C99.3789 76.9453 99.0078 77.2578 98.4219 77.6875C98.1094 77.9609 97.7969 78.2344 97.4844 78.5078C97.1719 78.7812 96.8789 79.0938 96.6055 79.4453C96.6055 79.5625 96.5859 79.7383 96.5469 79.9727C96.5078 80.207 96.4492 80.4805 96.3711 80.793C96.332 81.0664 96.2734 81.3398 96.1953 81.6133C96.1172 81.8867 96.0586 82.1016 96.0195 82.2578C95.8242 83 95.6484 83.7617 95.4922 84.543C95.375 85.3242 95.3555 86.1055 95.4336 86.8867C95.4727 86.9648 95.5117 87.1406 95.5508 87.4141C95.5898 87.6484 95.6289 87.8047 95.668 87.8828L95.6094 88C94.9453 89.3672 94.418 90.8125 94.0273 92.3359C93.6758 93.8984 93.5 95.4609 93.5 97.0234H93.4414C93.0508 97.9219 92.6992 98.8984 92.3867 99.9531C92.1133 101.008 91.9766 102.043 91.9766 103.059C91.8594 103.176 91.7422 103.293 91.625 103.41C91.5469 103.527 91.4102 103.645 91.2148 103.762C91.0586 103.879 90.8828 104.035 90.6875 104.23C90.4922 104.426 90.4922 104.66 90.6875 104.934C90.8828 105.402 91.0391 105.832 91.1562 106.223C90.7266 106.379 90.4531 106.574 90.3359 106.809C90.2578 107.043 90.2188 107.277 90.2188 107.512C90.2188 107.785 90.1992 108.039 90.1602 108.273C90.1211 108.547 89.9844 108.781 89.75 108.977V109.094C89.75 109.719 89.6328 110.227 89.3984 110.617C89.2031 111.047 88.9688 111.418 88.6953 111.73C88.4219 112.082 88.168 112.434 87.9336 112.785C87.7383 113.137 87.6406 113.586 87.6406 114.133V114.367L87.6992 114.484L87.6406 114.602C86.8984 116.047 85.9414 117.414 84.7695 118.703C84.2617 119.25 83.6953 119.914 83.0703 120.695C82.4844 121.477 82.1523 122.258 82.0742 123.039C82.0352 123.039 81.9961 123.02 81.957 122.98C81.918 122.98 81.8594 122.98 81.7812 122.98C81.3516 122.98 80.9219 123.137 80.4922 123.449C80.0625 123.801 79.6133 124.133 79.1445 124.445C78.6758 124.797 78.168 125.051 77.6211 125.207C77.1133 125.363 76.5664 125.266 75.9805 124.914L75.9219 124.855L75.8047 124.914C75.2188 125.227 74.6133 125.363 73.9883 125.324C73.3633 125.285 72.7578 125.148 72.1719 124.914C71.5469 124.68 70.9609 124.367 70.4141 123.977C69.8672 123.586 69.3594 123.195 68.8906 122.805C68.1875 122.219 67.6602 121.477 67.3086 120.578C66.957 119.719 66.7422 118.84 66.6641 117.941C66.5859 117.629 66.5664 117.297 66.6055 116.945C66.6445 116.633 66.6445 116.32 66.6055 116.008L66.0195 115.832L66.3711 115.129H66.3125C66.2734 115.129 66.2344 115.109 66.1953 115.07C65.7656 114.719 65.5703 114.309 65.6094 113.84C65.6484 113.371 65.7656 112.902 65.9609 112.434C66.1562 111.965 66.332 111.496 66.4883 111.027C66.6445 110.559 66.6055 110.129 66.3711 109.738C66.4492 109.66 66.4883 109.602 66.4883 109.562C66.8789 109.016 67.2109 108.449 67.4844 107.863C67.7578 107.277 68.0312 106.691 68.3047 106.105C68.4219 105.871 68.5977 105.539 68.832 105.109C69.0273 104.68 69.2617 104.23 69.5352 103.762C69.7695 103.293 70.0039 102.863 70.2383 102.473C70.4727 102.082 70.668 101.809 70.8242 101.652C71.0195 101.457 71.1562 101.242 71.2344 101.008C71.2734 100.773 71.332 100.539 71.4102 100.305C71.5273 99.7578 71.7031 99.25 71.9375 98.7812C72.1328 98.3516 72.543 98.0977 73.168 98.0195H73.2852L73.3438 97.9023C74.2031 96.6133 75.1602 95.3438 76.2148 94.0938C77.3086 92.8438 78.4805 91.7695 79.7305 90.8711H79.7891V90.8125C80.0234 90.3047 80.3555 89.7773 80.7852 89.2305C81.2539 88.6836 81.7227 88.1562 82.1914 87.6484C82.6602 87.1016 83.0898 86.6133 83.4805 86.1836C83.8711 85.7539 84.125 85.3828 84.2422 85.0703C84.5156 85.1484 84.75 85.0508 84.9453 84.7773C85.1406 84.4648 85.3359 84.1328 85.5312 83.7812C85.7656 83.4297 86.0195 83.1172 86.293 82.8438C86.5664 82.5703 86.9375 82.4531 87.4062 82.4922C87.875 81.5547 88.3633 80.8125 88.8711 80.2656C89.3789 79.7188 90.0234 79.1523 90.8047 78.5664C90.8828 78.4883 90.9219 78.4492 90.9219 78.4492C91 78.0195 91.1562 77.6875 91.3906 77.4531C91.625 77.2188 91.8398 77.0234 92.0352 76.8672C92.2695 76.6719 92.4258 76.457 92.5039 76.2227C92.582 75.9883 92.5039 75.6367 92.2695 75.168C92.6992 74.3867 92.6211 73.5859 92.0352 72.7656C91.4883 73.2734 90.9805 73.8008 90.5117 74.3477C90.043 74.8945 89.3594 75.168 88.4609 75.168C88.1875 75.3633 87.9727 75.5586 87.8164 75.7539C87.6992 75.9492 87.5625 76.125 87.4062 76.2812C87.25 76.4375 87.0547 76.5742 86.8203 76.6914C86.5859 76.7695 86.2344 76.8086 85.7656 76.8086V76.3398L85.5312 76.2227C85.2578 76.3789 84.8867 76.6133 84.418 76.9258C83.4023 77.5117 82.4648 78.0195 81.6055 78.4492C80.7461 78.8398 79.6914 79.0352 78.4414 79.0352C78.4414 78.4102 78.1094 78.0391 77.4453 77.9219C77.3672 78.1953 77.2891 78.4297 77.2109 78.625C77.1328 78.7812 76.9961 78.957 76.8008 79.1523C76.293 78.6836 75.8438 78.1953 75.4531 77.6875C75.0625 77.1406 74.6914 76.5547 74.3398 75.9297C74.2617 75.8125 74.125 75.5977 73.9297 75.2852C73.7734 74.9727 73.5781 74.6602 73.3438 74.3477C73.1484 74.0352 72.9531 73.7617 72.7578 73.5273C72.5625 73.2539 72.3867 73.0977 72.2305 73.0586C72.2305 71.9648 72.2305 70.9492 72.2305 70.0117C72.2305 69.0742 72.2695 68.1562 72.3477 67.2578C72.3867 66.3203 72.4844 65.4023 72.6406 64.5039C72.7578 63.5664 72.9727 62.5508 73.2852 61.457C73.3242 61.418 73.3047 61.3398 73.2266 61.2227C73.1875 60.9883 73.1875 60.6953 73.2266 60.3438C73.3047 59.9922 73.3828 59.6406 73.4609 59.2891C73.5781 58.8984 73.7148 58.5469 73.8711 58.2344C74.0273 57.8828 74.1641 57.5898 74.2812 57.3555C74.3984 56.457 74.5156 55.5391 74.6328 54.6016C74.75 53.6641 74.8281 52.7461 74.8672 51.8477C75.0234 51.8867 75.1602 51.9453 75.2773 52.0234C75.4336 52.0625 75.5703 52.1211 75.6875 52.1992C76 50.7148 76.3906 49.2695 76.8594 47.8633C77.3281 46.457 77.8555 45.0703 78.4414 43.7031C78.7539 42.9609 79.0859 42.2188 79.4375 41.4766C79.7891 40.6953 80.0625 39.9141 80.2578 39.1328V39.0742C80.375 38.918 80.5898 38.7617 80.9023 38.6055C81.2539 38.4492 81.5273 38.4102 81.7227 38.4883C81.957 38.5664 82.1523 38.7227 82.3086 38.957C82.4648 39.1523 82.582 39.3867 82.6602 39.6602C82.7773 39.8945 82.875 40.1289 82.9531 40.3633C83.0703 40.5977 83.2266 40.7539 83.4219 40.832L84.0664 41.0664C83.9883 41.1445 83.8906 41.2031 83.7734 41.2422C83.6562 41.2812 83.5586 41.3398 83.4805 41.418C82.9727 41.8086 82.6602 42.4141 82.543 43.2344C82.4258 44.0156 82.3672 44.7188 82.3672 45.3438L82.3086 45.4023C82.0352 46.5352 81.6836 47.5898 81.2539 48.5664C80.8242 49.5039 80.4141 50.4414 80.0234 51.3789C79.6328 52.3164 79.3008 53.293 79.0273 54.3086C78.7539 55.2852 78.6562 56.3984 78.7344 57.6484C78.7734 58.1562 78.7344 58.6445 78.6172 59.1133C78.5 59.582 78.3633 60.0703 78.207 60.5781C78.0508 61.0469 77.8945 61.5352 77.7383 62.043C77.6211 62.5117 77.5625 63 77.5625 63.5078C77.4453 63.8594 77.3086 64.1133 77.1523 64.2695C76.9961 64.4258 76.957 64.8359 77.0352 65.5C77.1133 65.8906 77.1719 66.3594 77.2109 66.9062C77.2891 67.4141 77.1914 67.8438 76.918 68.1953V68.2539H76.8594C76.625 69.1523 76.5469 70.1094 76.625 71.125C76.7031 72.1406 77.0742 73 77.7383 73.7031C78.1289 74.1328 78.4609 74.3281 78.7344 74.2891C79.0078 74.2109 79.3008 74.0742 79.6133 73.8789C79.9258 73.6445 80.2578 73.4297 80.6094 73.2344C81 73 81.4688 72.9219 82.0156 73H82.1328L82.1914 72.9414C82.7383 72.5117 83.2656 72.2188 83.7734 72.0625C84.3203 71.8672 84.8281 71.6719 85.2969 71.4766C85.8047 71.2812 86.2734 71.0273 86.7031 70.7148C87.1719 70.3633 87.582 69.8359 87.9336 69.1328C88.4023 69.3672 88.7734 69.4258 89.0469 69.3086C89.3594 69.1914 89.6328 69.0156 89.8672 68.7812C90.1016 68.5469 90.3555 68.3125 90.6289 68.0781C90.9414 67.8438 91.332 67.7266 91.8008 67.7266C91.7617 67.375 91.8984 66.75 92.2109 65.8516C92.5625 64.9141 92.9531 63.918 93.3828 62.8633C93.8125 61.8086 94.2422 60.793 94.6719 59.8164C95.1016 58.8398 95.3945 58.0977 95.5508 57.5898L95.7266 57.5312C96.2344 57.4141 96.4688 57.1016 96.4297 56.5938L96.1367 55.4219C96.0977 55.1875 96.0977 55.0117 96.1367 54.8945C96.1758 54.7773 96.2539 54.6211 96.3711 54.4258C96.6055 53.8789 96.7812 53.2734 96.8984 52.6094C97.0156 51.9453 97.1328 51.3398 97.25 50.793C97.3672 50.0508 97.5039 49.3086 97.6602 48.5664C97.8555 47.8242 98.1094 47.1211 98.4219 46.457L98.5391 46.2227L98.0117 45.9883C98.5977 45.4023 99.0078 44.8359 99.2422 44.2891C99.4766 43.7422 99.6328 43.1953 99.7109 42.6484C99.8281 42.1016 99.9258 41.5547 100.004 41.0078C100.121 40.4609 100.355 39.9141 100.707 39.3672C100.824 39.2109 100.883 39.0938 100.883 39.0156L101.117 39.1328C101.234 38.6641 101.391 38.3125 101.586 38.0781C101.82 37.8047 102.074 37.5898 102.348 37.4336C102.621 37.2383 102.895 37.082 103.168 36.9648C103.48 36.8086 103.773 36.5742 104.047 36.2617C104.359 36.3398 104.652 36.3789 104.926 36.3789C105.238 36.3789 105.531 36.418 105.805 36.4961C105.922 36.7305 105.98 36.9844 105.98 37.2578C105.98 37.5312 105.961 37.8242 105.922 38.1367C105.922 38.4102 105.922 38.6836 105.922 38.957C105.961 39.1914 106.039 39.3867 106.156 39.543C106.312 39.6211 106.41 39.6797 106.449 39.7188C106.098 40.0703 105.824 40.6562 105.629 41.4766C105.434 42.2969 105.297 42.9609 105.219 43.4688C105.141 43.9375 105.062 44.4062 104.984 44.875C104.945 45.3438 104.848 45.793 104.691 46.2227C104.613 46.418 104.516 46.5742 104.398 46.6914C104.32 46.8086 104.262 46.9648 104.223 47.1602C103.793 48.5273 103.383 49.9336 102.992 51.3789C102.602 52.8242 101.918 54.1133 100.941 55.2461V55.3047C100.512 56.2031 100.102 57.082 99.7109 57.9414C99.3203 58.8008 99.2227 59.7383 99.418 60.7539C99.457 60.8711 99.4766 60.9883 99.4766 61.1055C99.5156 61.1836 99.5352 61.2812 99.5352 61.3984L99.0664 61.457V61.5742L98.9492 61.8086V61.9258L98.8906 62.043C99.1641 62.2383 99.2812 62.4531 99.2422 62.6875C99.2031 62.8828 99.1055 63.0781 98.9492 63.2734C98.832 63.4688 98.6953 63.6641 98.5391 63.8594C98.3828 64.0547 98.3047 64.2305 98.3047 64.3867V64.5039L98.3633 64.5625C98.3242 65.1094 98.2656 65.7148 98.1875 66.3789C98.1094 67.0039 97.9727 67.5898 97.7773 68.1367L97.7188 68.1953C97.875 68.5469 97.9531 68.8789 97.9531 69.1914C97.9531 69.5039 97.9141 69.8164 97.8359 70.1289C97.7969 70.4023 97.7383 70.6953 97.6602 71.0078C97.6211 71.3203 97.6016 71.6523 97.6016 72.0039L98.3047 71.6523C98.3047 71.0664 98.4805 70.6367 98.832 70.3633C99.2227 70.0898 99.6523 69.875 100.121 69.7188C100.629 69.5234 101.098 69.3477 101.527 69.1914C101.996 68.9961 102.309 68.7422 102.465 68.4297H102.523C102.641 68.1953 102.738 67.9609 102.816 67.7266C102.934 67.4531 103.051 67.2188 103.168 67.0234C103.48 67.0234 103.832 66.8867 104.223 66.6133C104.613 66.3008 105.004 65.9492 105.395 65.5586C105.785 65.1289 106.156 64.6992 106.508 64.2695C106.859 63.8398 107.172 63.4883 107.445 63.2148L107.504 63.1562C107.777 63.1172 107.973 63.1562 108.09 63.2734C108.207 63.3906 108.266 63.5469 108.266 63.7422C108.305 63.9375 108.305 64.1523 108.266 64.3867C108.227 64.582 108.188 64.7578 108.148 64.9141L108.09 64.9727ZM90.043 85.1875C89.4961 85.7344 89.0273 86.2617 88.6367 86.7695C88.2461 87.2383 87.8359 87.6875 87.4062 88.1172C86.9766 88.5859 86.5078 89.0352 86 89.4648C85.4922 89.8945 84.8672 90.2852 84.125 90.6367L84.0078 90.6953C84.0078 91.0859 83.9297 91.3594 83.7734 91.5156C83.6172 91.7109 83.4414 91.8867 83.2461 92.043C83.0508 92.1992 82.875 92.3555 82.7188 92.5117C82.5625 92.668 82.4844 92.9023 82.4844 93.2148C82.4062 93.293 82.3281 93.4102 82.25 93.5664C82.1719 93.7227 82.0742 93.8594 81.957 93.9766C81.8398 94.0938 81.7031 94.1719 81.5469 94.2109C81.4297 94.2891 81.293 94.2891 81.1367 94.2109C80.8242 94.5234 80.4727 94.9336 80.082 95.4414C79.6914 95.9883 79.3398 96.457 79.0273 96.8477C78.1289 97.8633 77.2305 98.8984 76.332 99.9531C75.4336 101.047 74.6523 102.199 73.9883 103.41L73.5781 103.293C73.3828 103.488 73.2461 103.645 73.168 103.762C73.0898 103.879 72.875 104.016 72.5234 104.172H72.4062L70.4141 109.562L70.4727 109.68C70.5117 110.109 70.4727 110.48 70.3555 110.793C70.2383 111.145 70.1211 111.477 70.0039 111.789C69.8867 112.141 69.8281 112.492 69.8281 112.844C69.7891 113.195 69.8867 113.605 70.1211 114.074L70.0625 114.191C69.8672 114.621 69.75 115.031 69.7109 115.422C69.6719 115.812 69.6914 116.145 69.7695 116.418C69.8086 116.73 69.8672 116.984 69.9453 117.18C69.9844 117.414 70.0039 117.551 70.0039 117.59C70.1602 117.629 70.3555 117.727 70.5898 117.883C70.5508 118.117 70.4531 118.332 70.2969 118.527C70.2969 118.957 70.4141 119.27 70.6484 119.465C70.8828 119.699 71.1562 119.875 71.4688 119.992C71.7812 120.148 72.0938 120.266 72.4062 120.344C72.7188 120.461 72.9336 120.598 73.0508 120.754L73.1094 120.695C73.8125 120.539 74.5352 120.441 75.2773 120.402C76.0586 120.402 76.7227 120.129 77.2695 119.582H77.3281V119.523C77.5234 118.859 77.7969 118.449 78.1484 118.293C78.5391 118.137 78.9688 117.922 79.4375 117.648C79.3984 117.336 79.5352 116.984 79.8477 116.594C80.1992 116.203 80.4727 115.91 80.668 115.715C80.9805 115.441 81.2148 115.227 81.3711 115.07C81.5273 114.914 81.6641 114.621 81.7812 114.191L81.8398 114.074L81.8984 114.016C82.25 113.664 82.5039 113.293 82.6602 112.902C82.8164 112.512 82.9336 112.062 83.0117 111.555C83.1289 111.008 83.2461 110.559 83.3633 110.207C83.5195 109.855 83.8516 109.465 84.3594 109.035C84.4375 108.957 84.4766 108.918 84.4766 108.918C85.0234 107.473 85.5898 106.027 86.1758 104.582C86.8008 103.137 87.25 101.672 87.5234 100.188C87.6016 99.9922 87.6406 99.7969 87.6406 99.6016C87.6797 99.4453 87.7383 99.2695 87.8164 99.0742C87.8945 98.8789 87.9727 98.6836 88.0508 98.4883C88.1289 98.293 88.1484 98.0977 88.1094 97.9023C88.1094 97.7461 88.0117 97.6094 87.8164 97.4922C87.8164 97.2188 87.9141 96.8477 88.1094 96.3789C88.3047 95.9102 88.5 95.4023 88.6953 94.8555C88.9297 94.3086 89.125 93.7422 89.2812 93.1562C89.4375 92.6094 89.4766 92.1016 89.3984 91.6328C89.3984 91.5547 89.3789 91.418 89.3398 91.2227C89.3398 91.0664 89.3008 90.9688 89.2227 90.9297L89.2812 90.8125C89.5156 90.3047 89.6719 89.7578 89.75 89.1719C89.8281 88.625 89.8672 88.0781 89.8672 87.5312C89.8672 87.1016 89.8867 86.7109 89.9258 86.3594C89.9648 85.9688 90.0039 85.5781 90.043 85.1875ZM148.871 33.0391C148.598 33.2734 148.441 33.6055 148.402 34.0352C148.363 34.4258 148.344 34.7773 148.344 35.0898C148.539 35.2852 148.676 35.4414 148.754 35.5586C147.816 36.8086 146.898 38.0586 146 39.3086C145.141 40.5586 144.32 41.8477 143.539 43.1758C143.305 43.5273 143.07 43.8984 142.836 44.2891C142.602 44.6406 142.406 45.0117 142.25 45.4023C142.289 45.4805 142.328 45.5586 142.367 45.6367C142.445 45.6758 142.484 45.7344 142.484 45.8125C142.484 46.0078 142.387 46.2617 142.191 46.5742C142.035 46.8477 141.879 47.1602 141.723 47.5117C141.605 47.8242 141.547 48.1562 141.547 48.5078C141.547 48.8203 141.703 49.1328 142.016 49.4453C140.453 51.2812 139.027 53.2148 137.738 55.2461C136.449 57.2383 135.18 59.25 133.93 61.2812L134.105 61.457C134.691 62.1992 135.238 62.6484 135.746 62.8047C136.293 62.9219 137.016 63 137.914 63.0391C138.617 63.0781 139.281 63.1562 139.906 63.2734C140.531 63.3906 141.02 63.8203 141.371 64.5625C141.098 65.2266 140.766 65.6562 140.375 65.8516C139.984 66.0078 139.457 66.1641 138.793 66.3203C138.48 66.3984 138.168 66.4961 137.855 66.6133C137.582 66.6914 137.289 66.7695 136.977 66.8477C136.625 66.9258 136.234 66.9258 135.805 66.8477C135.414 66.7695 135.004 66.7109 134.574 66.6719C134.145 66.5938 133.715 66.5938 133.285 66.6719C132.895 66.7109 132.504 66.9062 132.113 67.2578C132.074 67.2969 131.918 67.5898 131.645 68.1367C131.371 68.6445 131.02 69.3086 130.59 70.1289C130.199 70.9492 129.75 71.8477 129.242 72.8242C128.773 73.8008 128.305 74.7188 127.836 75.5781C127.406 76.4375 127.035 77.1797 126.723 77.8047C126.41 78.4297 126.215 78.8203 126.137 78.9766C126.215 79.0938 126.312 79.2305 126.43 79.3867C126.547 79.5039 126.645 79.6016 126.723 79.6797C126.488 80.4609 126.312 81.2617 126.195 82.082C126.078 82.9023 125.98 83.7422 125.902 84.6016C125.824 85.3438 125.766 86.125 125.727 86.9453C125.727 87.7266 125.668 88.4883 125.551 89.2305C125.434 90.0117 125.238 90.7539 124.965 91.457C124.691 92.1602 124.262 92.8047 123.676 93.3906C123.246 93.3516 122.875 93.1758 122.562 92.8633C122.25 92.5898 121.977 92.2578 121.742 91.8672C121.508 91.4766 121.273 91.0664 121.039 90.6367C120.844 90.2461 120.629 89.9141 120.395 89.6406C120.941 88.8594 121.234 88.0781 121.273 87.2969C121.312 86.4766 121.312 85.6758 121.273 84.8945C121.234 84.1133 121.273 83.3516 121.391 82.6094C121.508 81.8672 121.918 81.1641 122.621 80.5C122.348 79.7578 122.113 79.0938 121.918 78.5078C121.723 77.9219 121.957 77.2969 122.621 76.6328H122.562C122.758 76.5547 123.031 76.3594 123.383 76.0469C123.734 75.6953 124.008 75.4219 124.203 75.2266C123.617 74.875 123.344 74.6016 123.383 74.4062C123.422 74.1719 123.578 73.957 123.852 73.7617C124.125 73.5273 124.418 73.2539 124.73 72.9414C125.082 72.6289 125.258 72.1797 125.258 71.5938L124.906 71.1836L125.082 71.0078C125.512 70.8125 125.766 70.6172 125.844 70.4219C125.961 70.1875 126.02 69.8555 126.02 69.4258H125.961V69.3672C125.727 68.7812 125.414 68.3516 125.023 68.0781C124.633 67.8047 124.203 67.5898 123.734 67.4336C123.305 67.2773 122.836 67.1406 122.328 67.0234C121.859 66.9062 121.41 66.7109 120.98 66.4375C120.785 66.6328 120.59 66.8281 120.395 67.0234C120.199 67.1797 120.062 67.3555 119.984 67.5508C119.555 67.4336 119.125 67.2773 118.695 67.082C118.305 66.8477 117.895 66.6719 117.465 66.5547C117.074 66.3984 116.664 66.3398 116.234 66.3789C115.844 66.418 115.414 66.6133 114.945 66.9648L114.828 67.082C114.438 67.5898 113.969 67.8047 113.422 67.7266C112.914 67.6484 112.367 67.5508 111.781 67.4336C111.234 67.2773 110.668 67.2188 110.082 67.2578C109.496 67.2969 108.969 67.668 108.5 68.3711C107.562 68.7227 106.645 68.8594 105.746 68.7812C104.809 68.7031 103.891 68.5469 102.992 68.3125C102.094 68.0781 101.195 67.8438 100.297 67.6094C99.3984 67.3359 98.4805 67.1797 97.543 67.1406C98.0508 66.5547 98.4609 65.9883 98.7734 65.4414C99.0469 64.8945 99.3594 64.4648 99.7109 64.1523C100.023 63.8008 100.453 63.625 101 63.625C101.508 63.5859 102.23 63.8203 103.168 64.3281L103.754 63.8008C104.223 64.1914 104.633 64.3281 104.984 64.2109C105.297 64.0547 105.59 63.8594 105.863 63.625C106.098 63.3906 106.352 63.2344 106.625 63.1562C106.859 63.0391 107.152 63.2148 107.504 63.6836C107.504 63.7227 107.523 63.7422 107.562 63.7422C107.562 63.7422 107.562 63.7617 107.562 63.8008C107.602 63.8008 107.641 63.8203 107.68 63.8594C107.68 63.8594 107.699 63.8594 107.738 63.8594C107.973 63.8984 108.324 63.8984 108.793 63.8594C109.223 63.7812 109.555 63.7031 109.789 63.625C110.766 63.4297 111.469 63.3906 111.898 63.5078C112.367 63.625 112.914 64.1133 113.539 64.9727C113.695 64.8164 113.891 64.6211 114.125 64.3867C114.359 64.1523 114.516 63.9375 114.594 63.7422C115.141 63.8203 115.629 63.8008 116.059 63.6836C116.527 63.5273 116.957 63.3906 117.348 63.2734C117.777 63.1562 118.207 63.1367 118.637 63.2148C119.066 63.293 119.555 63.5859 120.102 64.0938C120.453 63.4297 120.863 63.0391 121.332 62.9219C121.84 62.7656 122.348 62.7461 122.855 62.8633C123.402 62.9414 123.949 63.0781 124.496 63.2734C125.043 63.4688 125.551 63.5859 126.02 63.625C126.488 63.625 126.898 63.4688 127.25 63.1562C127.641 62.8047 127.914 62.1406 128.07 61.1641C129.281 60.5391 130.121 59.8164 130.59 58.9961C131.059 58.1758 131.41 57.1406 131.645 55.8906C131.762 55.2266 131.879 54.6797 131.996 54.25C132.113 53.7812 132.289 53.3906 132.523 53.0781C132.758 52.7656 133.051 52.4727 133.402 52.1992C133.754 51.8867 134.223 51.5352 134.809 51.1445C134.848 51.1055 134.887 51.0859 134.926 51.0859C134.965 51.0469 135.004 51.0078 135.043 50.9688C135.043 50.8516 135.023 50.7539 134.984 50.6758C134.984 50.5586 134.984 50.4414 134.984 50.3242C134.945 49.9336 135.023 49.543 135.219 49.1523C135.453 48.7227 135.707 48.293 135.98 47.8633C136.254 47.4336 136.508 47.0039 136.742 46.5742C136.977 46.1445 137.094 45.6953 137.094 45.2266C137.094 44.6797 136.938 44.2109 136.625 43.8203C136.312 43.4297 135.98 43.0781 135.629 42.7656L135.453 42.8242C134.398 43.1758 133.344 43.4883 132.289 43.7617C131.234 43.9961 130.199 44.3477 129.184 44.8164C127.699 45.4805 126.039 45.9883 124.203 46.3398C122.406 46.6914 120.688 46.6523 119.047 46.2227C119.047 45.9883 118.93 45.7344 118.695 45.4609C118.5 45.1875 118.305 44.9727 118.109 44.8164L117.758 44.9922C117.289 45.2656 116.879 45.4219 116.527 45.4609C116.176 45.4609 115.844 45.4023 115.531 45.2852C115.258 45.1289 114.945 44.9531 114.594 44.7578C114.281 44.5625 113.91 44.4062 113.48 44.2891C113.676 43.8203 113.91 43.4883 114.184 43.293C114.457 43.0977 114.809 42.9219 115.238 42.7656C116.02 43.2734 116.762 43.5859 117.465 43.7031C118.168 43.8203 118.852 43.8203 119.516 43.7031C120.219 43.5859 120.902 43.3711 121.566 43.0586C122.23 42.7461 122.934 42.3945 123.676 42.0039C124.066 41.7695 124.535 41.5352 125.082 41.3008C125.629 41.0664 126.195 40.8711 126.781 40.7148C127.367 40.5195 127.953 40.4023 128.539 40.3633C129.125 40.2852 129.652 40.3047 130.121 40.4219L130.355 40.4805C130.824 40.0117 131.43 39.6211 132.172 39.3086C132.953 38.957 133.754 38.625 134.574 38.3125C135.434 38 136.293 37.668 137.152 37.3164C138.012 36.9258 138.773 36.4375 139.438 35.8516L139.789 36.3203H139.965C140.941 36.3203 141.645 36.1641 142.074 35.8516C142.504 35.5 143.012 34.9531 143.598 34.2109C143.754 33.9766 143.988 33.6641 144.301 33.2734C144.652 32.8438 145.004 32.4336 145.355 32.043C145.746 31.6133 146.137 31.2617 146.527 30.9883C146.918 30.6758 147.27 30.5391 147.582 30.5781C147.738 30.5781 147.875 30.6953 147.992 30.9297C148.109 31.125 148.227 31.3594 148.344 31.6328C148.461 31.9062 148.559 32.1797 148.637 32.4531C148.715 32.7266 148.793 32.9219 148.871 33.0391ZM218.773 62.5117C218.109 63.8008 217.328 64.8945 216.43 65.793C215.57 66.6523 214.633 67.4727 213.617 68.2539C212.641 68.9961 211.645 69.7383 210.629 70.4805C209.613 71.1836 208.656 72.0234 207.758 73C207.211 73.0391 206.645 73.1758 206.059 73.4102C205.512 73.6055 204.965 73.8594 204.418 74.1719C203.871 74.4453 203.324 74.7578 202.777 75.1094C202.27 75.4219 201.801 75.7148 201.371 75.9883V76.0469L201.078 76.457C200.805 76.1836 200.531 76.0859 200.258 76.1641C200.023 76.2031 199.789 76.3203 199.555 76.5156C199.32 76.7109 199.086 76.9258 198.852 77.1602C198.656 77.3555 198.461 77.4727 198.266 77.5117L198.207 77.5703V77.6289C197.348 79.1133 196.312 80.3828 195.102 81.4375C193.93 82.4531 192.68 83.3906 191.352 84.25C190.062 85.1094 188.734 85.9688 187.367 86.8281C186 87.6484 184.73 88.6055 183.559 89.6992C182.895 89.0352 182.27 88.7617 181.684 88.8789C181.098 88.9961 180.473 89.3086 179.809 89.8164C179.223 90.2461 178.715 90.5 178.285 90.5781C177.895 90.6953 177.328 90.5781 176.586 90.2266L176.469 90.168C176.078 90.4023 175.688 90.4414 175.297 90.2852C174.906 90.168 174.516 90.0117 174.125 89.8164C173.734 89.6602 173.324 89.5625 172.895 89.5234C172.504 89.5234 172.094 89.7773 171.664 90.2852C171.43 90.207 171.176 90.0898 170.902 89.9336C170.668 89.8164 170.414 89.7188 170.141 89.6406C169.867 89.5625 169.594 89.5234 169.32 89.5234C169.047 89.5625 168.773 89.6992 168.5 89.9336C168.383 89.6211 168.207 89.4062 167.973 89.2891C167.738 89.2109 167.582 89.0547 167.504 88.8203L167.445 88.7617C166.312 88.7617 165.043 88.5664 163.637 88.1758C162.27 87.7852 161.078 87.2578 160.062 86.5938C159.867 86.4375 159.652 86.2812 159.418 86.125C159.223 85.9297 159.027 85.7344 158.832 85.5391L158.422 86.125C157.445 85.5391 156.547 84.875 155.727 84.1328C154.906 83.3906 154.105 82.6094 153.324 81.7891C152.582 80.9688 151.82 80.1484 151.039 79.3281C150.297 78.5078 149.496 77.7266 148.637 76.9844C148.402 75.2656 147.836 73.7031 146.938 72.2969C146.039 70.8906 145.16 69.5039 144.301 68.1367C143.402 66.7695 142.68 65.3438 142.133 63.8594C141.586 62.375 141.527 60.6758 141.957 58.7617C142.895 58.4883 143.637 58.8008 144.184 59.6992L144.652 59.0547C145.121 59.6016 145.434 60.3047 145.59 61.1641C145.707 61.9844 145.863 62.7852 146.059 63.5664C146.215 64.3477 146.488 65.0312 146.879 65.6172C147.27 66.1641 147.973 66.418 148.988 66.3789C149.145 67.2773 149.418 68.0781 149.809 68.7812C150.238 69.4453 150.727 70.0703 151.273 70.6562C151.82 71.2031 152.426 71.7305 153.09 72.2383C153.754 72.7461 154.418 73.2344 155.082 73.7031C155.707 74.1719 156.449 74.7188 157.309 75.3438C158.168 75.9688 158.793 76.6133 159.184 77.2773L159.242 77.3945C160.844 77.3945 162.191 77.5703 163.285 77.9219C164.418 78.2734 165.688 78.8008 167.094 79.5039L167.328 79.6211C167.367 79.4258 167.465 79.2109 167.621 78.9766C167.816 78.7031 167.992 78.5273 168.148 78.4492C168.539 78.293 169.008 78.332 169.555 78.5664C170.102 78.8008 170.648 79.0156 171.195 79.2109C171.781 79.4062 172.309 79.4648 172.777 79.3867C173.246 79.3086 173.598 78.8789 173.832 78.0977C174.418 78.1758 175.043 78.2344 175.707 78.2734C176.41 78.3125 177.094 78.293 177.758 78.2148C178.422 78.0977 179.027 77.9219 179.574 77.6875C180.16 77.4141 180.668 77.043 181.098 76.5742C181.723 77.1211 182.25 77.2773 182.68 77.043C183.109 76.7695 183.5 76.457 183.852 76.1055C184.242 75.7539 184.613 75.5195 184.965 75.4023C185.316 75.2461 185.746 75.5781 186.254 76.3984C186.684 76.2031 187.172 76.0078 187.719 75.8125C188.305 75.6172 188.812 75.4219 189.242 75.2266C190.258 74.7969 191.391 74.3867 192.641 73.9961C193.891 73.5664 195.062 73.3516 196.156 73.3516C196.391 73.1562 196.664 72.8828 196.977 72.5312C197.289 72.1406 197.582 71.75 197.855 71.3594C198.168 70.9297 198.422 70.5195 198.617 70.1289C198.812 69.6992 198.91 69.3477 198.91 69.0742C199.184 68.6836 199.457 68.332 199.73 68.0195C200.004 67.668 200.258 67.3164 200.492 66.9648C200.727 66.6133 200.922 66.2617 201.078 65.9102C201.234 65.5195 201.312 65.0508 201.312 64.5039C202.094 63.6055 202.68 62.5703 203.07 61.3984C203.5 60.1875 203.617 58.9766 203.422 57.7656C203.695 57.4141 204.008 56.9062 204.359 56.2422C204.711 55.5781 205.043 54.875 205.355 54.1328C205.668 53.3906 205.922 52.6875 206.117 52.0234C206.352 51.3203 206.469 50.793 206.469 50.4414C206.469 50.0117 206.41 49.6992 206.293 49.5039C206.176 49.2695 205.902 49.0352 205.473 48.8008C204.965 48.5273 204.555 48.5078 204.242 48.7422C203.969 48.9766 203.734 49.25 203.539 49.5625C203.344 49.8359 203.148 50.0508 202.953 50.207C202.758 50.3242 202.523 50.1484 202.25 49.6797C202.25 49.7578 202.191 49.8164 202.074 49.8555C201.371 50.5586 200.551 51.2227 199.613 51.8477C198.715 52.4336 197.738 52.9805 196.684 53.4883C195.668 53.9961 194.633 54.4453 193.578 54.8359C192.523 55.1875 191.508 55.4609 190.531 55.6562H190.473C190.277 55.9297 190.082 56.2227 189.887 56.5352C189.691 56.8086 189.477 57.082 189.242 57.3555C188.695 56.9648 188.383 56.4375 188.305 55.7734C188.227 55.1094 188.109 54.4844 187.953 53.8984C188.305 53.1562 188.676 52.5703 189.066 52.1406C189.457 51.7109 189.867 51.3398 190.297 51.0273C190.727 50.6758 191.195 50.3633 191.703 50.0898C192.211 49.8164 192.758 49.4648 193.344 49.0352C193.773 49.3867 194.105 49.5234 194.34 49.4453C194.613 49.3672 194.828 49.2109 194.984 48.9766C195.18 48.7031 195.336 48.4297 195.453 48.1562C195.609 47.8438 195.805 47.6484 196.039 47.5703C196.742 47.9219 197.328 47.9805 197.797 47.7461C198.305 47.4727 198.773 47.1406 199.203 46.75C199.672 46.3203 200.141 45.9492 200.609 45.6367C201.117 45.3242 201.723 45.3047 202.426 45.5781L202.543 45.6367C203.051 45.1289 203.695 44.6406 204.477 44.1719C205.258 43.6641 206.078 43.2734 206.938 43C207.797 42.6875 208.637 42.5703 209.457 42.6484C210.277 42.6875 210.98 43 211.566 43.5859C211.566 46.5938 211.273 49.4258 210.688 52.082C210.141 54.7383 209.145 57.3945 207.699 60.0508V60.1094C207.621 60.4609 207.484 60.8125 207.289 61.1641C207.133 61.5156 206.957 61.8672 206.762 62.2188C206.527 62.6875 206.332 63.1172 206.176 63.5078C206.02 63.8984 205.883 64.2891 205.766 64.6797C205.688 65.0703 205.629 65.4805 205.59 65.9102C205.59 66.3398 205.59 66.8281 205.59 67.375C205.121 67.6875 204.867 68.1562 204.828 68.7812C204.789 69.3672 204.672 69.9141 204.477 70.4219L204.535 70.4805C204.887 70.832 205.18 71.0273 205.414 71.0664C205.648 71.0664 205.844 70.9688 206 70.7734C206.195 70.5781 206.371 70.3438 206.527 70.0703C206.684 69.7578 206.84 69.4648 206.996 69.1914H207.055C207.758 68.4883 208.52 67.9023 209.34 67.4336C210.16 66.9648 211 66.5156 211.859 66.0859C212.719 65.6562 213.559 65.207 214.379 64.7383C215.238 64.2695 216.039 63.6836 216.781 62.9805C217.133 62.9023 217.484 62.8828 217.836 62.9219C218.188 62.9609 218.441 62.7852 218.598 62.3945L218.773 62.5117ZM192.582 78.1562C192.348 78.0391 191.742 78.1367 190.766 78.4492C189.828 78.7227 188.793 79.0742 187.66 79.5039C186.527 79.8945 185.453 80.2656 184.438 80.6172C183.422 80.9688 182.758 81.1445 182.445 81.1445C182.016 81.1445 181.684 81.1641 181.449 81.2031C181.215 81.2031 180.883 81.1055 180.453 80.9102C180.492 80.9883 180.512 81.125 180.512 81.3203C180.512 81.4766 180.531 81.5938 180.57 81.6719C180.492 81.9453 180.258 82.1406 179.867 82.2578C179.516 82.375 179.242 82.2773 179.047 81.9648C179.047 81.5352 179.184 81.2031 179.457 80.9688C179.73 80.7344 179.867 80.4414 179.867 80.0898C179.633 80.1289 179.418 80.1094 179.223 80.0312C179.027 79.9531 178.793 80.0312 178.52 80.2656C178.324 80.4219 178.207 80.6758 178.168 81.0273C178.129 81.3398 178.09 81.6523 178.051 81.9648C178.012 82.2773 177.934 82.5508 177.816 82.7852C177.699 83.0195 177.484 83.1367 177.172 83.1367C176.859 83.1367 176.566 83.1172 176.293 83.0781C176.02 83 175.727 82.9609 175.414 82.9609C174.75 82.9219 174.086 82.9414 173.422 83.0195C172.797 83.0977 172.152 83.1953 171.488 83.3125C171.293 83.3516 171.078 83.3906 170.844 83.4297C170.609 83.4297 170.375 83.4688 170.141 83.5469C170.062 83.3516 169.926 83.1367 169.73 82.9023C169.574 82.668 169.34 82.5508 169.027 82.5508C168.871 82.5508 168.734 82.6289 168.617 82.7852C168.5 82.9023 168.383 83.0586 168.266 83.2539C168.188 83.4102 168.09 83.5664 167.973 83.7227C167.895 83.8789 167.797 83.957 167.68 83.957C167.602 83.9961 167.426 83.8398 167.152 83.4883C166.879 83.0977 166.703 82.8633 166.625 82.7852C166.312 83.332 166 83.6445 165.688 83.7227C165.375 83.7617 164.887 83.6641 164.223 83.4297L158.832 81.3789C159.535 81.8477 160.219 82.2969 160.883 82.7266C161.586 83.1562 162.27 83.5859 162.934 84.0156C163.051 84.0938 163.148 84.1914 163.227 84.3086C163.344 84.4258 163.48 84.5234 163.637 84.6016C164.027 84.7969 164.574 84.9727 165.277 85.1289C165.98 85.2852 166.547 85.2656 166.977 85.0703C167.406 84.875 167.719 84.7969 167.914 84.8359C168.148 84.8359 168.441 85.0117 168.793 85.3633L169.203 84.7773C169.359 84.8555 169.516 84.9727 169.672 85.1289C169.945 85.0508 170.219 84.9922 170.492 84.9531C170.766 84.9141 170.961 84.7773 171.078 84.543C172.016 85.2461 172.895 86.0078 173.715 86.8281C174.027 86.3594 174.223 86.1055 174.301 86.0664C174.418 85.9883 174.691 86.1641 175.121 86.5938C175.355 86.0469 175.648 85.7734 176 85.7734C176.352 85.7734 176.703 85.832 177.055 85.9492C177.445 86.0664 177.836 86.1445 178.227 86.1836C178.656 86.1836 179.047 85.9102 179.398 85.3633C179.594 85.2852 179.789 85.1484 179.984 84.9531C180.219 84.7188 180.453 84.5234 180.688 84.3672C180.922 84.1719 181.137 84.0742 181.332 84.0742C181.566 84.0742 181.781 84.25 181.977 84.6016C182.172 84.4062 182.367 84.25 182.562 84.1328C182.758 83.9766 182.953 83.8398 183.148 83.7227C183.344 83.6055 183.676 83.5078 184.145 83.4297C184.613 83.3125 185.082 83.1953 185.551 83.0781C186.02 82.9609 186.43 82.8242 186.781 82.668C187.172 82.4727 187.367 82.2188 187.367 81.9062C188.227 81.4375 189.105 80.8516 190.004 80.1484C190.941 79.4453 191.801 78.7812 192.582 78.1562Z" fill="#272727"/>
<path d="M1 160C1 160 108.135 109.543 118.054 133.837C127.974 158.131 189.478 128.23 189.478 128.23C216.595 112.905 258.917 72.1671 256.933 94.5925" stroke="#272727" stroke-width="2"/>
<path d="M174.417 16.1664C174.958 16.1664 175.477 15.9513 175.86 15.5684C176.243 15.1855 176.458 14.6662 176.458 14.1248V10.0414C176.458 9.49994 176.243 8.98063 175.86 8.59775C175.477 8.21486 174.958 7.99976 174.417 7.99976C173.875 7.99976 173.356 8.21486 172.973 8.59775C172.59 8.98063 172.375 9.49994 172.375 10.0414V14.1248C172.375 14.6662 172.59 15.1855 172.973 15.5684C173.356 15.9513 173.875 16.1664 174.417 16.1664Z" fill="#272727"/>
<path d="M192.792 26.3748H188.708C188.167 26.3748 187.648 26.5899 187.265 26.9727C186.882 27.3556 186.667 27.8749 186.667 28.4164C186.667 28.9579 186.882 29.4772 187.265 29.8601C187.648 30.243 188.167 30.4581 188.708 30.4581H192.792C193.333 30.4581 193.853 30.243 194.235 29.8601C194.618 29.4772 194.833 28.9579 194.833 28.4164C194.833 27.8749 194.618 27.3556 194.235 26.9727C193.853 26.5899 193.333 26.3748 192.792 26.3748Z" fill="#272727"/>
<path d="M162.167 28.4164C162.167 27.8749 161.952 27.3556 161.569 26.9727C161.186 26.5899 160.666 26.3748 160.125 26.3748H156.042C155.5 26.3748 154.981 26.5899 154.598 26.9727C154.215 27.3556 154 27.8749 154 28.4164C154 28.9579 154.215 29.4772 154.598 29.8601C154.981 30.243 155.5 30.4581 156.042 30.4581H160.125C160.666 30.4581 161.186 30.243 161.569 29.8601C161.952 29.4772 162.167 28.9579 162.167 28.4164Z" fill="#272727"/>
<path d="M162.616 14.1252C162.218 13.7489 161.687 13.546 161.139 13.5614C160.592 13.5767 160.073 13.8089 159.696 14.2069C159.32 14.6048 159.117 15.136 159.132 15.6836C159.148 16.2311 159.38 16.7501 159.778 17.1264L162.718 19.9644C162.915 20.1549 163.149 20.3037 163.405 20.4019C163.661 20.5001 163.934 20.5457 164.208 20.536C164.483 20.535 164.755 20.4784 165.008 20.3696C165.261 20.2608 165.489 20.1022 165.678 19.9031C166.059 19.5206 166.272 19.0031 166.272 18.4637C166.272 17.9244 166.059 17.4069 165.678 17.0244L162.616 14.1252Z" fill="#272727"/>
<path d="M184.625 20.5363C185.151 20.5342 185.655 20.3294 186.034 19.9646L188.974 17.1267C189.332 16.7519 189.535 16.2547 189.54 15.736C189.546 15.2173 189.353 14.7161 189.003 14.334C188.652 13.952 188.169 13.7178 187.651 13.679C187.134 13.6403 186.621 13.7999 186.218 14.1254L183.278 17.0246C182.897 17.4071 182.684 17.9246 182.684 18.464C182.684 19.0033 182.897 19.5208 183.278 19.9033C183.631 20.2764 184.112 20.5024 184.625 20.5363Z" fill="#272727"/>
<path d="M174.417 40.6665C173.875 40.6665 173.356 40.8816 172.973 41.2645C172.59 41.6474 172.375 42.1667 172.375 42.7082V46.7915C172.375 47.333 172.59 47.8523 172.973 48.2352C173.356 48.6181 173.875 48.8332 174.417 48.8332C174.958 48.8332 175.477 48.6181 175.86 48.2352C176.243 47.8523 176.458 47.333 176.458 46.7915V42.7082C176.458 42.1667 176.243 41.6474 175.86 41.2645C175.477 40.8816 174.958 40.6665 174.417 40.6665Z" fill="#272727"/>
<path d="M186.115 36.869C185.726 36.4927 185.202 36.2866 184.66 36.2962C184.119 36.3058 183.603 36.5302 183.226 36.9201C182.85 37.3099 182.644 37.8333 182.654 38.3751C182.663 38.9169 182.888 39.4327 183.277 39.809L186.217 42.7082C186.596 43.073 187.101 43.2778 187.626 43.2799C187.9 43.2815 188.171 43.2281 188.423 43.1228C188.676 43.0176 188.905 42.8627 189.096 42.6674C189.288 42.4776 189.439 42.2517 189.543 42.0029C189.647 41.7542 189.7 41.4873 189.7 41.2178C189.7 40.9482 189.647 40.6814 189.543 40.4326C189.439 40.1838 189.288 39.958 189.096 39.7682L186.115 36.869Z" fill="#272727"/>
<path d="M162.718 36.8688L159.778 39.7067C159.587 39.8965 159.435 40.1223 159.331 40.3711C159.227 40.6199 159.174 40.8868 159.174 41.1563C159.174 41.4258 159.227 41.6927 159.331 41.9415C159.435 42.1903 159.587 42.4161 159.778 42.6059C159.969 42.8013 160.198 42.9562 160.451 43.0614C160.703 43.1666 160.974 43.22 161.248 43.2184C161.751 43.2227 162.238 43.0409 162.616 42.708L165.556 39.8701C165.946 39.4937 166.17 38.9779 166.18 38.4361C166.189 37.8944 165.983 37.371 165.607 36.9811C165.231 36.5912 164.715 36.3668 164.173 36.3573C163.631 36.3477 163.108 36.5537 162.718 36.9301V36.8688Z" fill="#272727"/>
<path d="M174.417 20.2498C172.801 20.2498 171.223 20.7287 169.88 21.6261C168.537 22.5235 167.49 23.7989 166.872 25.2912C166.254 26.7834 166.092 28.4255 166.407 30.0097C166.722 31.5938 167.5 33.049 168.642 34.1911C169.784 35.3333 171.239 36.1111 172.823 36.4262C174.408 36.7413 176.05 36.5796 177.542 35.9614C179.034 35.3433 180.31 34.2966 181.207 32.9536C182.104 31.6106 182.583 30.0316 182.583 28.4164C182.583 26.2505 181.723 24.1733 180.191 22.6417C178.66 21.1102 176.583 20.2498 174.417 20.2498V20.2498ZM174.417 32.4998C173.609 32.4998 172.82 32.2603 172.148 31.8116C171.477 31.3629 170.953 30.7252 170.644 29.979C170.335 29.2329 170.254 28.4119 170.412 27.6198C170.569 26.8277 170.958 26.1001 171.529 25.5291C172.1 24.958 172.828 24.5691 173.62 24.4115C174.412 24.254 175.233 24.3349 175.979 24.6439C176.725 24.953 177.363 25.4763 177.812 26.1478C178.261 26.8193 178.5 27.6088 178.5 28.4164C178.5 29.4994 178.07 30.538 177.304 31.3038C176.538 32.0695 175.5 32.4998 174.417 32.4998Z" fill="#272727"/>
</svg>
